<svg width="40" height="40" viewBox="0 0 40 40" fill="none" xmlns="http://www.w3.org/2000/svg">
<g clip-path="url(#clip0)">
<path fill-rule="evenodd" clip-rule="evenodd" d="M35.7753 11.7482C35.0295 10.4718 34.2322 9.26504 33.5303 8.35011C32.4957 7.00136 31.8846 6.52331 31.1951 6.52331C30.5414 6.52331 30.0098 6.98112 29.4128 7.66855C28.9732 8.17472 28.4492 8.8766 27.8976 9.69801C27.107 10.8751 26.3479 12.1589 25.6989 13.4045C25.0036 12.0715 24.3536 10.9228 23.873 10.1004C22.3693 7.52706 20.7657 5.09893 19.3574 3.26306C17.0478 0.252188 16.1794 0 15.5468 0C14.9142 0 14.0459 0.252189 11.7361 3.26314C10.3278 5.099 8.72413 7.52714 7.22053 10.1004C5.41357 13.1927 1.21082 20.8995 1.21082 25.6641C1.21082 33.569 7.64194 40.0001 15.5468 40.0001C22.9637 40.0001 29.0829 34.3385 29.8102 27.1101C30.2648 27.194 30.7276 27.2378 31.1952 27.2378C35.3824 27.2378 38.7891 23.8312 38.7891 19.6438C38.7891 17.2615 36.9009 13.6744 35.7753 11.7482V11.7482ZM15.5468 37.6562C8.93428 37.6562 3.55457 32.2766 3.55457 25.664C3.55457 22.8725 5.55404 17.7165 8.90319 11.8718C11.8927 6.65503 14.558 3.30056 15.5468 2.47337C16.5356 3.30056 19.2009 6.65495 22.1904 11.8718C25.5395 17.7166 27.539 22.8725 27.539 25.664C27.539 32.2766 22.1593 37.6562 15.5468 37.6562ZM31.1952 24.8939C30.7312 24.8939 30.2747 24.8333 29.8326 24.7149C29.5744 22.1322 28.3508 18.922 27.0132 16.059C28.3163 13.1488 30.2498 10.2811 31.194 9.18699C31.7905 9.87434 32.8466 11.3229 34.0214 13.3999C35.5392 16.0833 36.4453 18.4175 36.4453 19.6438C36.4453 22.5387 34.0901 24.8939 31.1952 24.8939V24.8939Z" fill="white"/>
<path fill-rule="evenodd" clip-rule="evenodd" d="M18.7642 20.0912C18.2037 19.7673 17.487 19.9596 17.1634 20.5201L11.9005 29.6359C11.5769 30.1964 11.7689 30.9131 12.3294 31.2366C12.5139 31.3432 12.7154 31.3939 12.9142 31.3939C13.3192 31.3939 13.7131 31.1837 13.9302 30.8077L19.1931 21.692C19.5167 21.1314 19.3247 20.4148 18.7642 20.0912V20.0912Z" fill="white"/>
<path fill-rule="evenodd" clip-rule="evenodd" d="M12.6172 22.4218C12.6172 21.7763 12.0908 21.2499 11.4453 21.2499C10.7998 21.2499 10.2734 21.7764 10.2734 22.4218C10.2734 23.0673 10.7999 23.5937 11.4453 23.5937C12.0907 23.5938 12.6172 23.0673 12.6172 22.4218Z" fill="white"/>
<path fill-rule="evenodd" clip-rule="evenodd" d="M19.2578 27.8906C18.6123 27.8906 18.0859 28.417 18.0859 29.0625C18.0859 29.7079 18.6124 30.2343 19.2578 30.2343C19.9033 30.2343 20.4297 29.7078 20.4297 29.0625C20.4297 28.417 19.9032 27.8906 19.2578 27.8906Z" fill="white"/>
</g>
<defs>
<clipPath id="clip0">
<rect width="40" height="40" fill="white"/>
</clipPath>
</defs>
</svg>
