<svg width="40" height="40" viewBox="0 0 40 40" fill="none" xmlns="http://www.w3.org/2000/svg">
<path d="M23.111 5.15063C23.3689 4.66188 23.5157 4.1057 23.5157 3.51562C23.5157 1.57711 21.9385 0 20 0C18.0615 0 16.4844 1.57711 16.4844 3.51562C16.4844 4.1057 16.6312 4.66188 16.8892 5.15063C8.68371 6.62328 2.43738 13.8146 2.43738 22.4373C2.43738 32.1214 10.316 40 20 40C29.6841 40 37.5627 32.1214 37.5627 22.4373C37.5627 13.8146 31.3164 6.62336 23.111 5.15063V5.15063ZM20 2.34375C20.6462 2.34375 21.1719 2.86945 21.1719 3.51562C21.1719 4.1618 20.6462 4.6875 20 4.6875C19.3539 4.6875 18.8282 4.1618 18.8282 3.51562C18.8282 2.86945 19.3539 2.34375 20 2.34375ZM20 37.6562C11.6083 37.6562 4.78113 30.8291 4.78113 22.4373C4.78113 14.0456 11.6083 7.21844 20 7.21844C28.3918 7.21844 35.2189 14.0456 35.2189 22.4373C35.2189 30.8291 28.3918 37.6562 20 37.6562Z" fill="white"/>
<path d="M29.165 13.3623C29.1486 13.3437 29.1328 13.3247 29.115 13.3069C29.0961 13.288 29.0762 13.2713 29.0564 13.254C26.7243 10.9538 23.5243 9.53125 20 9.53125C16.4605 9.53125 13.2497 10.9638 10.9157 13.2791C10.9055 13.2885 10.8948 13.297 10.885 13.3069C10.8767 13.3152 10.8697 13.3241 10.8618 13.3325C8.53458 15.6681 7.09387 18.8876 7.09387 22.4373C7.09387 23.0845 7.61856 23.6092 8.26575 23.6092H9.59387C10.2411 23.6092 10.7657 23.0845 10.7657 22.4373C10.7657 21.7902 10.2411 21.2655 9.59387 21.2655H9.50301C9.72918 19.2262 10.5381 17.3603 11.7593 15.8384L11.8241 15.9033C12.0529 16.1321 12.3529 16.2466 12.6527 16.2466C12.9525 16.2466 13.2525 16.1322 13.4813 15.9033C13.9389 15.4456 13.9389 14.7037 13.4813 14.246L13.4182 14.1829C14.937 12.9694 16.7964 12.1658 18.8281 11.9405V12.0312C18.8281 12.6784 19.3528 13.2031 20 13.2031C20.6472 13.2031 21.1718 12.6784 21.1718 12.0312V11.9405C23.2027 12.1659 25.062 12.9699 26.5809 14.1837L26.5186 14.2459C26.061 14.7036 26.061 15.4455 26.5186 15.9032C26.7475 16.132 27.0474 16.2465 27.3472 16.2465C27.6471 16.2465 27.9471 16.1321 28.1758 15.9032L28.2398 15.8392C29.4581 17.3573 30.2664 19.2173 30.495 21.25H30.3906C29.7434 21.25 29.2187 21.7747 29.2187 22.4219C29.2187 23.0691 29.7434 23.5938 30.3906 23.5938C30.3906 23.5938 31.7352 23.5936 31.7357 23.5936C32.3829 23.5927 32.9069 23.0673 32.9061 22.4202C32.9013 18.8926 31.4721 15.692 29.165 13.3623V13.3623Z" fill="white"/>
<path d="M25.3142 17.1231C24.8566 16.6655 24.1146 16.6655 23.657 17.1231L18.7633 22.0168C18.2215 21.758 17.6167 21.6384 17.0041 21.6814C16.3585 21.7265 15.8716 22.2864 15.9167 22.932C15.9618 23.5777 16.5212 24.0649 17.1673 24.0195C17.5059 23.9956 17.8376 24.1199 18.0775 24.3599C18.3137 24.5961 18.4381 24.9229 18.4187 25.2564C18.3812 25.9025 18.8746 26.4567 19.5207 26.4942C19.5438 26.4956 19.5668 26.4963 19.5897 26.4963C20.2058 26.4962 20.7223 26.0152 20.7585 25.3923C20.7932 24.7945 20.6729 24.2043 20.4202 23.6746L25.3142 18.7805C25.7719 18.3227 25.7719 17.5808 25.3142 17.1231V17.1231Z" fill="white"/>
<path d="M26.7188 30.8594H13.2812C12.6341 30.8594 12.1094 31.3841 12.1094 32.0312C12.1094 32.6784 12.6341 33.2031 13.2812 33.2031H26.7188C27.3659 33.2031 27.8906 32.6784 27.8906 32.0312C27.8906 31.3841 27.3659 30.8594 26.7188 30.8594Z" fill="white"/>
</svg>
