<svg width="40" height="40" viewBox="0 0 40 40" fill="none" xmlns="http://www.w3.org/2000/svg">
<path d="M31.6446 3.30421C29.7493 3.30421 27.8917 3.95765 26.4139 5.14414C25.9092 5.54937 25.8286 6.28687 26.2336 6.79156C26.6389 7.29617 27.3765 7.37695 27.8811 6.97171C28.9444 6.11804 30.281 5.64796 31.6446 5.64796C34.9594 5.64796 37.6562 8.34476 37.6562 11.6596C37.6562 14.9744 34.9593 17.6712 31.6446 17.6712H9.60925C8.96207 17.6712 8.43738 18.1959 8.43738 18.8431C8.43738 19.4903 8.96207 20.015 9.60925 20.015H31.6446C36.2518 20.015 40 16.2668 40 11.6596C40 7.05242 36.2517 3.30421 31.6446 3.30421V3.30421Z" fill="white"/>
<path d="M7.36426 15.3354H19.8828C20.53 15.3354 21.0546 14.8107 21.0546 14.1635C21.0546 13.5163 20.53 12.9916 19.8828 12.9916H7.36426C6.71707 12.9916 6.19238 13.5163 6.19238 14.1635C6.19238 14.8107 6.71707 15.3354 7.36426 15.3354V15.3354Z" fill="white"/>
<path d="M19.5543 22.3667H1.17188C0.524687 22.3667 0 22.8914 0 23.5386C0 24.1858 0.524687 24.7105 1.17188 24.7105H19.5543C22.2125 24.7105 24.3752 26.873 24.3752 29.5312C24.3752 32.1894 22.2125 34.352 19.5543 34.352C18.4608 34.352 17.3891 33.975 16.5363 33.2905C16.0317 32.8853 15.2941 32.9659 14.8889 33.4706C14.4837 33.9753 14.5644 34.7129 15.0691 35.118C16.3363 36.1354 17.9292 36.6957 19.5543 36.6957C23.5048 36.6957 26.7189 33.4817 26.7189 29.5312C26.7189 25.5806 23.5048 22.3667 19.5543 22.3667V22.3667Z" fill="white"/>
<path d="M1.17188 15.3354H2.75273C3.39992 15.3354 3.92461 14.8107 3.92461 14.1635C3.92461 13.5163 3.39992 12.9916 2.75273 12.9916H1.17188C0.524687 12.9916 0 13.5163 0 14.1635C0 14.8107 0.524687 15.3354 1.17188 15.3354Z" fill="white"/>
<path d="M15.3125 28.2032C15.3125 27.556 14.7878 27.0313 14.1406 27.0313H7.10938C6.46219 27.0313 5.9375 27.556 5.9375 28.2032C5.9375 28.8504 6.46219 29.3751 7.10938 29.3751H14.1406C14.7879 29.3751 15.3125 28.8504 15.3125 28.2032Z" fill="white"/>
</svg>
